<svg width="50" height="50" viewBox="0 0 50 50" fill="none" xmlns="http://www.w3.org/2000/svg">
<mask id="mask0_8_46" style="mask-type:alpha" maskUnits="userSpaceOnUse" x="0" y="0" width="50" height="50">
<rect width="50" height="50" fill="white"/>
</mask>
<g mask="url(#mask0_8_46)">
<path d="M19.7138 6.72448C20.5614 6.63522 21.5127 6.53503 22.0714 6.65542C22.0868 6.6591 22.6099 6.81596 22.5876 6.95029C22.535 7.05257 22.5286 7.15388 22.5215 7.26506C22.5051 7.522 22.4854 7.8316 21.8857 8.32756C22.2554 8.60057 22.7566 8.73411 23.2972 8.87814C23.4994 8.93202 23.7071 8.98737 23.9156 9.05204C24.1304 9.11869 24.2198 9.25648 24.3058 9.38906C24.4036 9.53994 24.4971 9.68408 24.7663 9.70894C25.0939 9.73924 25.4901 9.86005 25.7078 10.1537C25.9758 10.5637 26.3497 9.76664 26.5548 9.32945C26.6203 9.18974 26.6687 9.08677 26.6907 9.07169C27.0679 8.81368 28.4392 8.89027 28.7125 9.36943C29.2076 9.53078 29.9177 9.61956 30.5071 9.69327C30.959 9.74977 31.34 9.79741 31.4991 9.8621C31.6884 9.9391 31.7768 9.99621 31.8744 10.0592C31.9657 10.1182 32.065 10.1824 32.2626 10.2729C32.613 10.4031 32.8868 11.0535 33.1395 11.6539C33.2819 11.9922 33.4176 12.3146 33.5566 12.5192C33.5758 12.5475 33.5941 12.5751 33.6117 12.6021L31.8222 10.5392C31.6462 10.3363 31.339 10.3145 31.136 10.4904L20.4782 19.7264C20.2753 19.9023 20.2534 20.2093 20.4294 20.4122L23.21 23.6177C23.4501 23.8944 23.3068 24.3426 23.0017 24.5455C22.922 24.5985 22.8447 24.6571 22.7705 24.7214C21.8267 25.5393 21.725 26.9671 22.5433 27.9105C23.3616 28.8538 24.7901 28.9555 25.7339 28.1376C25.8081 28.0732 25.8771 28.0051 25.9409 27.9338C26.1851 27.6607 26.6493 27.5824 26.8894 27.8591L29.67 31.0646C29.846 31.2675 30.1532 31.2893 30.3562 31.1135L33.5633 28.3342C33.8401 28.0943 33.7618 27.6303 33.4886 27.3862C33.4172 27.3225 33.349 27.2535 33.2847 27.1793C32.4664 26.236 32.5681 24.8082 33.5119 23.9903C34.4557 23.1724 35.8842 23.2741 36.7025 24.2174C36.7669 24.2916 36.8256 24.3688 36.8786 24.4485C37.0815 24.7534 37.53 24.8966 37.8069 24.6567L41.0139 21.8775C41.2169 21.7016 41.2388 21.3945 41.0628 21.1916L39.9309 19.8868C39.955 19.8884 39.9795 19.8901 40.0043 19.8921C40.171 19.7033 42.0456 18.8683 42.1936 19.0906C42.7238 19.6302 41.7656 21.4239 41.3795 22.1465C41.3331 22.2334 41.2949 22.3048 41.2686 22.3567C40.6476 23.5806 39.9658 24.1961 39.027 25.0435C38.9342 25.1273 38.8388 25.2134 38.7408 25.3025C38.548 25.5461 37.9506 26.2735 37.4168 26.9235C36.9313 27.5146 36.4984 28.0417 36.4704 28.0825C36.3707 28.2336 36.3974 29.377 36.5284 29.9893C36.6146 30.3959 36.7006 30.6356 36.7791 30.8546C36.8746 31.1211 36.9592 31.3568 37.0195 31.8248C37.1882 32.8089 37.1115 34.1465 36.202 34.6101C36.0699 34.677 35.506 35.0672 34.989 35.4249C34.5127 35.7544 34.0763 36.0564 34.0537 36.0529C33.768 36.0167 34.1118 37.2159 34.1694 37.417C34.1744 37.4343 34.1772 37.4442 34.1774 37.4453C34.308 38.377 33.9098 38.5273 33.2461 38.7778C33.1372 38.8189 33.0212 38.8627 32.8993 38.9131C32.7473 38.9761 32.6148 39.5117 32.4949 39.9965C32.4238 40.284 32.3572 40.5537 32.2934 40.6962C32.0246 40.8291 31.9848 40.8847 31.8335 41.096C31.8244 41.1088 31.8149 41.1221 31.8048 41.1361C30.5494 42.8867 29.353 43.0741 27.7855 43.3198C27.3819 43.383 26.9538 43.4501 26.4937 43.5487C26.3347 43.579 25.4937 43.0728 25.467 42.7144C25.4402 42.61 24.2314 38.805 23.9926 38.4208C23.9926 37.5841 23.6403 36.9252 23.2937 36.277C22.8493 35.4461 22.4144 34.6327 22.7429 33.4847C22.8483 33.1184 22.9914 32.8583 23.1175 32.629C23.3579 32.1922 23.5368 31.8671 23.2765 31.1323C23.1331 30.7275 23.0193 30.2782 22.9056 29.8292C22.8176 29.4819 22.7296 29.1347 22.6281 28.8086C22.4685 28.2957 22.103 27.898 21.7375 27.5003C21.4956 27.2372 21.2538 26.9741 21.0718 26.6777C20.9088 26.4122 21.0126 26.166 21.1241 25.9017C21.1832 25.7616 21.2444 25.6165 21.2693 25.4606C21.2794 25.3848 21.0005 23.4473 20.7231 23.3728C20.635 23.3547 20.3965 23.4169 20.15 23.4812C19.8428 23.5614 19.5231 23.6448 19.4669 23.58C19.3272 23.5171 19.1795 23.3574 19.012 23.1761C18.5872 22.7165 18.0341 22.1181 17.156 22.6053C17.116 22.6274 17.0703 22.6531 17.02 22.6814C16.5963 22.9198 15.8465 23.3416 15.4801 23.3416C15.1764 23.3804 14.8768 23.3387 14.5676 23.2956C14.1446 23.2367 13.7038 23.1753 13.2101 23.3142C12.6505 23.4719 12.1538 23.426 11.6883 23.0206C11.3186 22.6989 10.9575 22.3512 10.5964 22.0035C10.3402 21.7568 10.0839 21.51 9.82466 21.2727C9.84007 20.5908 9.67868 20.4356 9.13816 19.9969V19.8888C9.13816 19.6087 8.91706 19.4388 8.70194 19.2735C8.38363 19.0288 8.07844 18.7942 8.52222 18.2277C8.18487 17.6832 8.36014 17.3012 8.57667 16.8292C8.67428 16.6164 8.78028 16.3854 8.85148 16.1129C8.95906 15.7013 8.94788 15.2664 8.93686 14.8373C8.91476 13.9775 8.89328 13.1413 9.82953 12.5642C10.0842 12.4078 10.8461 11.429 10.9998 11.1689C11.2042 10.8213 11.4858 10.7371 11.7889 10.6465C12.0518 10.568 12.3308 10.4846 12.5897 10.2204C12.919 9.88422 13.2503 9.12125 13.363 8.63267C13.4372 8.30913 15.1022 6.90565 15.2343 7.04202C15.2984 7.2259 16.8875 7.522 17.2663 7.26973C17.72 6.96708 18.4021 6.84217 18.9337 6.80039C19.1711 6.78164 19.4369 6.75364 19.7138 6.72448Z" fill="#B92EDB"/>
</g>
</svg>
